<?xml version="1.0" encoding="utf-8"?>
<!-- Generator: Adobe Illustrator 24.0.1, SVG Export Plug-In . SVG Version: 6.00 Build 0)  -->
<svg version="1.1" xmlns="http://www.w3.org/2000/svg" xmlns:xlink="http://www.w3.org/1999/xlink" x="0px" y="0px"
	 viewBox="0 0 256 256" style="enable-background:new 0 0 256 256;" xml:space="preserve">
<style type="text/css">
	.st0{fill:url(#SVGID_1_);}
	.st1{fill:url(#SVGID_2_);}
	.st2{fill:url(#SVGID_3_);}
	.st3{fill:url(#SVGID_4_);}
	.st4{fill:url(#SVGID_5_);}
	.st5{fill:url(#SVGID_6_);}
	.st6{fill:url(#SVGID_7_);}
	.st7{fill:url(#SVGID_8_);}
	.st8{fill:#322C7A;}
	.st9{fill:url(#SVGID_9_);}
	.st10{fill:url(#SVGID_10_);}
	.st11{fill:url(#SVGID_11_);}
	.st12{fill:url(#SVGID_12_);}
	.st13{fill:url(#SVGID_13_);}
	.st14{fill:url(#SVGID_14_);}
	.st15{fill:#F9FDFC;}
	.st16{fill:#91C02E;}
	.st17{fill:url(#SVGID_15_);}
	.st18{fill:url(#SVGID_16_);}
	.st19{fill:url(#SVGID_17_);}
	.st20{fill:url(#SVGID_18_);}
	.st21{fill:url(#SVGID_19_);}
	.st22{fill:url(#SVGID_20_);}
</style>
<g id="Background">
</g>
<g id="Graphic_elemetns">
	<g>
		
			<linearGradient id="SVGID_1_" gradientUnits="userSpaceOnUse" x1="-13287.6582" y1="13698.3008" x2="-11869.3887" y2="12262.1816" gradientTransform="matrix(-0.1145 0.9934 -0.9934 -0.1145 -847.0408 8819.2783)">
			<stop  offset="0.0306" style="stop-color:#FF0B27"/>
			<stop  offset="0.4304" style="stop-color:#3D0380"/>
		</linearGradient>
		<path class="st0" d="M-12188.37-5021.84l137.22-366.17l-163.37,172.48c-14.34-180.33-145.94-357.89-349.93-444.69
			c4.37-11.12,6.24-23.19,3.35-35.58c-11.35-48.73-338.54-35.04-338.54-35.04l-46.15,36.61c56.91,3.8,115.3,17.3,172.31,41.42
			c204.49,86.52,323.38,280.69,293.91,459.33l-189.29-164.91l171.63,351.36l171.63,351.36L-12188.37-5021.84z"/>
		
			<linearGradient id="SVGID_2_" gradientUnits="userSpaceOnUse" x1="-12905.4521" y1="13467.6309" x2="-11760.9209" y2="12682.1299" gradientTransform="matrix(-0.1145 0.9934 -0.9934 -0.1145 -847.0408 8819.2783)">
			<stop  offset="0.0306" style="stop-color:#FF0B27"/>
			<stop  offset="0.4871" style="stop-color:#3D0380"/>
		</linearGradient>
		<polygon class="st1" points="-12279.44,-4692.28 -12325.59,-4655.67 -12668.85,-5358.38 -12622.7,-5394.99 		"/>
		
			<linearGradient id="SVGID_3_" gradientUnits="userSpaceOnUse" x1="-12501.9873" y1="13043.7197" x2="-13263.6885" y2="12339.5439" gradientTransform="matrix(-0.1145 0.9934 -0.9934 -0.1145 -847.0408 8819.2783)">
			<stop  offset="0.1184" style="stop-color:#FF0B27"/>
			<stop  offset="0.4304" style="stop-color:#3D0380"/>
		</linearGradient>
		<polygon class="st2" points="-12005,-5424.61 -12051.15,-5388 -12169.39,-5263.17 -12180.45,-5243.6 -12168.37,-5252.14 		"/>
		
			<linearGradient id="SVGID_4_" gradientUnits="userSpaceOnUse" x1="-11841.4971" y1="12558.3809" x2="-14858.5527" y2="14208.7344" gradientTransform="matrix(-0.1145 0.9934 -0.9934 -0.1145 -847.0408 8819.2783)">
			<stop  offset="0.0306" style="stop-color:#FF0B27"/>
			<stop  offset="0.4304" style="stop-color:#3D0380"/>
		</linearGradient>
		<path class="st3" d="M-12727.32-5689.41c204.49,86.52,323.39,280.69,293.91,459.33l-189.29-164.91l171.63,351.36l171.63,351.36
			l137.22-366.17l137.22-366.17l-163.37,172.48c-14.37-180.69-146.46-358.62-351.15-445.23c-128.64-54.43-263.21-63.16-380.12-33.47
			C-12842.73-5727.03-12784.34-5713.54-12727.32-5689.41z"/>
		
			<linearGradient id="SVGID_5_" gradientUnits="userSpaceOnUse" x1="3112.1531" y1="-4971.8442" x2="4530.4229" y2="-6407.9639" gradientTransform="matrix(0.1145 -0.9934 0.9934 0.1145 -7817.2739 -692.4414)">
			<stop  offset="0.0306" style="stop-color:#FF0B27"/>
			<stop  offset="0.4304" style="stop-color:#3D0380"/>
		</linearGradient>
		<path class="st4" d="M-13145.09-5280.63l-137.22,366.17l163.37-172.48c14.34,180.33,145.94,357.89,349.93,444.69
			c-4.37,11.11-6.24,23.18-3.35,35.58c11.35,48.73,338.54,35.04,338.54,35.04l46.15-36.61c-56.91-3.8-115.3-17.3-172.31-41.42
			c-204.49-86.52-323.38-280.69-293.91-459.33l189.29,164.91l-171.63-351.36l-171.63-351.36L-13145.09-5280.63z"/>
		
			<linearGradient id="SVGID_6_" gradientUnits="userSpaceOnUse" x1="3494.3589" y1="-5202.5151" x2="4638.8906" y2="-5988.0156" gradientTransform="matrix(0.1145 -0.9934 0.9934 0.1145 -7817.2739 -692.4414)">
			<stop  offset="0.0306" style="stop-color:#FF0B27"/>
			<stop  offset="0.4871" style="stop-color:#3D0380"/>
		</linearGradient>
		<polygon class="st5" points="-13054.02,-5610.19 -13007.87,-5646.8 -12664.61,-4944.09 -12710.76,-4907.48 		"/>
		
			<linearGradient id="SVGID_7_" gradientUnits="userSpaceOnUse" x1="3897.8237" y1="-5626.4263" x2="3136.1233" y2="-6330.6016" gradientTransform="matrix(0.1145 -0.9934 0.9934 0.1145 -7817.2739 -692.4414)">
			<stop  offset="0.1184" style="stop-color:#FF0B27"/>
			<stop  offset="0.4304" style="stop-color:#3D0380"/>
		</linearGradient>
		<polygon class="st6" points="-13328.46,-4877.85 -13282.31,-4914.46 -13164.07,-5039.3 -13153.01,-5058.87 -13165.09,-5050.33 		
			"/>
		
			<linearGradient id="SVGID_8_" gradientUnits="userSpaceOnUse" x1="4558.3145" y1="-6111.7642" x2="1541.2581" y2="-4461.4106" gradientTransform="matrix(0.1145 -0.9934 0.9934 0.1145 -7817.2739 -692.4414)">
			<stop  offset="0.0306" style="stop-color:#FF0B27"/>
			<stop  offset="0.4304" style="stop-color:#3D0380"/>
		</linearGradient>
		<path class="st7" d="M-12606.14-4613.05c-204.49-86.52-323.38-280.69-293.91-459.33l189.29,164.91l-171.63-351.36l-171.63-351.36
			l-137.22,366.17l-137.22,366.17l163.37-172.48c14.37,180.69,146.46,358.62,351.15,445.23c128.64,54.43,263.21,63.16,380.12,33.47
			C-12490.73-4575.43-12549.12-4588.93-12606.14-4613.05z"/>
	</g>
	<g>
		<path class="st8" d="M133.18-120.74h-10.52c-31.48,0-57-25.52-57-57v-10.52c0-31.48,25.52-57,57-57h10.52c31.48,0,57,25.52,57,57
			v10.52C190.18-146.26,164.66-120.74,133.18-120.74z"/>
		<linearGradient id="SVGID_9_" gradientUnits="userSpaceOnUse" x1="160.6746" y1="-139.3315" x2="85.2795" y2="-193.208">
			<stop  offset="0.0306" style="stop-color:#E06016"/>
			<stop  offset="0.4304" style="stop-color:#EFBE2C"/>
		</linearGradient>
		<path class="st9" d="M158.82-166.36c-1.46,1.04-3.98,2.08-5.46,3.14c-0.05-0.11-0.07-0.14-0.08-0.17
			c-0.29-0.87-0.58-1.75-0.87-2.62c-0.05-0.14-0.08-0.38-0.17-0.4c-0.28-0.08-0.19-0.28-0.21-0.45c-0.02-0.18-0.04-0.36-0.09-0.53
			c-0.27-0.87-0.54-1.74-0.82-2.61c-0.03-0.1-0.09-0.19-0.17-0.33c-0.09,0.16-0.14,0.25-0.2,0.35c-0.65,1.17-1.27,2.36-1.95,3.51
			c-0.53,0.89-1.11,1.74-1.71,2.59c-0.6,0.85-1.23,1.69-1.88,2.51c-0.65,0.81-1.33,1.62-2.04,2.37c-0.93,0.98-1.89,1.94-2.87,2.86
			c-0.79,0.74-1.61,1.45-2.47,2.11c-1.21,0.92-2.43,1.84-3.7,2.65c-1.32,0.84-2.7,1.58-4.08,2.32c-0.6,0.32-1.25,0.57-1.88,0.83
			c-0.11,0.04-0.27,0.05-0.37,0c-0.76-0.35-1.51-0.7-2.25-1.07c-1.45-0.71-2.86-1.48-4.19-2.41c-1.24-0.87-2.51-1.68-3.65-2.68
			c-0.87-0.77-1.77-1.5-2.61-2.3c-0.9-0.86-1.76-1.76-2.6-2.68c-0.7-0.76-1.36-1.56-2.01-2.37c-0.65-0.83-1.27-1.68-1.88-2.54
			c-0.52-0.74-1.05-1.48-1.51-2.25c-0.65-1.1-1.25-2.24-1.87-3.36c-0.16-0.29-0.14-0.33,0.18-0.44c0.16-0.05,0.32-0.11,0.48-0.16
			c-0.07-0.1-0.15-0.19-0.22-0.29c-0.35-0.45-0.61-0.91-0.83-1.44c-0.2-0.48,0.14-1.06,0.53-1.31c0.39-0.25,0.94-0.19,1.3,0.09
			c0.05-0.07,0.11-0.13,0.18-0.19c0.13-0.24,0.33-0.44,0.59-0.55c0.32-0.13,0.69-0.11,0.99,0.04c0.27-0.04,0.55-0.01,0.75,0.15
			c0.12,0.09,0.23,0.19,0.34,0.28c0.08-0.21,0.22-0.4,0.38-0.53c0,0,0.01,0,0.01-0.01c-1.12-0.81-2.25-1.61-3.37-2.42
			c-1.25-0.9-2.5-1.79-3.75-2.69c-1.09-0.79-2.19-1.57-3.28-2.36c-0.59-0.42-1.18-0.84-1.77-1.25c-0.44-0.3-0.72-0.65-1.22-1
			c-2.03,6.22-4.04,12.4-6.07,18.65c0.17-0.04,0.12,0,0.21-0.03c0.34-0.11,0.68-0.23,1.03-0.34c0.7-0.23,1.41-0.44,2.11-0.68
			c1.12-0.38,2.24-0.78,3.35-1.18c0.22-0.08,0.33-0.01,0.42,0.19c0.18,0.41,0.37,0.81,0.58,1.2c0.4,0.76,0.77,1.53,1.22,2.25
			c1.07,1.72,2.15,3.43,3.27,5.11c0.54,0.81,1.15,1.58,1.76,2.35c0.67,0.84,1.36,1.66,2.08,2.46c0.79,0.88,1.6,1.73,2.44,2.56
			c0.83,0.82,1.68,1.63,2.57,2.38c1.06,0.9,2.14,1.77,3.25,2.59c1.12,0.83,2.27,1.64,3.46,2.35c1.53,0.92,3.1,1.77,4.69,2.57
			c1.46,0.74,2.99,1.32,4.57,1.76c0.25,0.07,0.53,0.1,0.78,0.05c0.11-0.02,0.22-0.05,0.33-0.08c0,0,0,0,0,0
			c4.38-0.4,11.84-5.48,13.78-6.85c0.1-0.07,0.2-0.13,0.29-0.2c0.05-0.04,0.1-0.07,0.14-0.11c0.02-0.02,0.03-0.03,0.03-0.03
			c0,0,0,0,0,0c0.99-0.75,1.95-1.55,2.89-2.36c0.92-0.8,1.8-1.63,2.66-2.49c0.83-0.83,1.67-1.68,2.44-2.56
			c0.73-0.83,1.43-1.7,2.11-2.57c0.59-0.75,1.17-1.52,1.72-2.3c0.58-0.82,1.13-1.67,1.66-2.52c0.6-0.97,1.17-1.95,1.74-2.94
			c0.29-0.5,0.56-1.02,0.83-1.53C158.87-166.3,158.84-166.33,158.82-166.36z"/>
		<linearGradient id="SVGID_10_" gradientUnits="userSpaceOnUse" x1="145.1129" y1="-226.9093" x2="170.4377" y2="-162.3052">
			<stop  offset="0.0306" style="stop-color:#E06016"/>
			<stop  offset="0.4304" style="stop-color:#EFBE2C"/>
		</linearGradient>
		<path class="st10" d="M168.88-181.4c-1.9-0.64-3.8-1.27-5.71-1.89c-0.27-0.09-0.33-0.22-0.27-0.48c0.2-0.9,0.4-1.8,0.57-2.7
			c0.26-1.44,0.54-2.88,0.73-4.33c0.28-2.18,0.53-4.36,0.72-6.55c0.14-1.57,0.21-3.16,0.21-4.74c0.01-2.68-0.05-5.35-0.09-8.03
			c0-0.1-0.05-0.23-0.12-0.3c-0.28-0.31-0.55-0.63-0.86-0.91c-0.89-0.79-1.76-1.6-2.7-2.31c-1.21-0.91-2.46-1.8-3.75-2.59
			c-1.44-0.88-2.94-1.66-4.44-2.45c-0.58-0.31-1.19-0.55-1.79-0.8c-0.63-0.26-1.26-0.51-1.89-0.76c-0.14,0.6-0.85,0.97-1.43,0.81
			c-0.33-0.1-0.67-0.18-1-0.28c-2.16,1.64-4.49,3.37-6.61,5c0.08,0.03,0.1,0.04,0.1,0.04c0,0,0.01,0,0.03,0.01
			c1.36,0.42,2.72,0.82,4.08,1.25c0.67,0.21,1.33,0.46,1.98,0.72c1.36,0.55,2.74,1.07,4.01,1.83c0.38,0.23,0.8,0.39,1.18,0.62
			c1,0.61,2.01,1.22,2.99,1.86c0.74,0.48,1.44,1.02,2.17,1.52c0.16,0.11,0.22,0.24,0.22,0.43c-0.01,0.9,0.02,1.79,0,2.69
			c-0.04,1.75-0.07,3.5-0.18,5.25c-0.09,1.52-0.26,3.03-0.44,4.54c-0.15,1.34-0.33,2.68-0.56,4.01c-0.21,1.24-0.5,2.46-0.74,3.69
			c-0.05,0.27-0.22-1.05-0.42-1.13c-0.55-0.21-1.1-0.42-1.65-0.61c-1.25-0.42-2.51-0.83-3.76-1.25c-0.33-0.11-0.76-0.28-1.16-0.41
			l0,0l-0.1-0.04l0,0l-0.32-0.12l0,0.02l-0.21-0.07l1.42,4.37c0,0.02,0.01,0.03,0.01,0.05c0.05,0.15,0.1,0.3,0.15,0.45l0,0
			l0.02,0.05c0,0,0,0,0,0c0.07,0.22,0.15,0.45,0.22,0.67l0.01,0.03c0,0,0,0,0,0c0.54,1.65,1.08,3.3,1.62,4.95
			c0.37,1.15,0.74,2.29,1.11,3.44c0.23,0.71,0.47,1.43,0.7,2.14c0.4,1.24,0.81,2.78,1.21,4.02c0.08,0.23,0.18,0.28,0.39,0.12
			c0.67-0.5,1.52-1.08,2.2-1.57c1.22-0.88,2.26-1.95,3.48-2.83c1.09-0.78,2.18-1.55,3.26-2.33c1.2-0.86,2.4-1.73,3.6-2.59
			c0.88-0.63,1.78-1.24,2.67-1.86c0.07-0.05,0.12-0.12,0.2-0.22C169.56-181.13,169.22-181.28,168.88-181.4z"/>
		<linearGradient id="SVGID_11_" gradientUnits="userSpaceOnUse" x1="152.7262" y1="-214.3698" x2="44.1322" y2="-197.7932">
			<stop  offset="0.0306" style="stop-color:#E06016"/>
			<stop  offset="0.4304" style="stop-color:#EFBE2C"/>
		</linearGradient>
		<path class="st11" d="M128.81-232.3c5.1,3.89,10.2,7.78,15.33,11.7c-0.39,0.3-0.71,0.56-1.04,0.81c-1.2,0.92-2.4,1.83-3.6,2.74
			c-1.37,1.04-2.74,2.06-4.11,3.1c-1.13,0.86-2.27,1.72-3.4,2.58c-0.99,0.76-1.97,1.52-2.95,2.28c-0.08,0.06-1.44,1.26-1.57,1.33
			c-0.01-0.19-0.03-0.33-0.03-0.47c0-2.15,0-4.31,0-6.46c0-0.71,1.26-1.89,0.56-1.87c-1.26,0.04-2.54,0.04-3.79,0.19
			c-2.15,0.26-4.29,0.57-6.42,0.95c-1.39,0.25-2.75,0.65-4.13,1c-0.54,0.14-1.09,0.28-1.61,0.48c-1.94,0.75-3.91,1.41-5.76,2.37
			c-1.1,0.57-2.21,1.14-3.26,1.8c-1.32,0.83-2.59,1.75-3.87,2.65c-0.12,0.09-0.23,0.29-0.23,0.44c0.01,2.14,0.01,4.29,0.08,6.43
			c0.05,1.49,0.18,2.98,0.33,4.46c0.13,1.34,0.32,2.68,0.52,4.01c0.19,1.29,0.43,2.57,0.66,3.85c0.04,0.21,0.09,0.42,0.15,0.67
			c-0.12-0.01-0.19,0-0.23-0.03c-0.78-0.57-1.56-1.14-2.35-1.7c-0.73-0.53-1.48-1.04-2.22-1.56c-0.16-0.11-0.25-0.04-0.3,0.12
			c-0.33,1.01-0.66,2.03-0.99,3.04c-0.37,1.14-0.73,2.28-1.1,3.42c-0.02,0.06-0.07,0.11-0.15,0.23c-0.15-0.6-0.29-1.12-0.39-1.65
			c-0.22-1.08-0.45-2.16-0.64-3.25c-0.21-1.27-0.41-2.55-0.57-3.84c-0.16-1.33-0.29-2.66-0.4-4c-0.1-1.21-0.21-2.43-0.23-3.64
			c-0.06-2.7-0.08-5.41-0.09-8.11c0-0.73,0.06-1.46,0.1-2.2c0.01-0.11,0.07-0.24,0.14-0.32c0.97-1.1,2.11-2.02,3.24-2.95
			c1.1-0.9,2.3-1.64,3.47-2.44c1.41-0.96,2.94-1.7,4.43-2.52c1.48-0.81,3.05-1.4,4.6-2.05c0.4-0.17,0.84-0.27,1.23-0.45
			c1.35-0.61,2.79-0.97,4.21-1.38c0.94-0.27,1.9-0.47,2.86-0.67c0.89-0.19,1.79-0.37,2.69-0.52c1.21-0.21,2.43-0.41,3.65-0.56
			c2.26-0.29,4.53-0.39,6.81-0.39c0.19,0,0.26-0.08,0.27-0.25c0-0.13,0.01-0.27,0.01-0.4c0-2.18,0-4.36,0-6.55
			c0-0.13,0.01-0.26,0.02-0.39C128.75-232.26,128.78-232.28,128.81-232.3z"/>
		<linearGradient id="SVGID_12_" gradientUnits="userSpaceOnUse" x1="89.7361" y1="-209.1736" x2="142.875" y2="-209.1736">
			<stop  offset="0.0306" style="stop-color:#E06016"/>
			<stop  offset="0.4304" style="stop-color:#EFBE2C"/>
		</linearGradient>
		<path class="st12" d="M127.54-233.46c5.1,3.89,10.2,7.78,15.33,11.7c-0.39,0.3-0.71,0.56-1.04,0.81c-1.2,0.92-2.4,1.83-3.6,2.74
			c-1.37,1.04-2.74,2.06-4.11,3.1c-1.13,0.86-2.27,1.72-3.4,2.58c-0.99,0.76-1.97,1.52-2.95,2.28c-0.08,0.06-0.17,0.1-0.31,0.17
			c-0.01-0.19-0.03-0.33-0.03-0.47c0-2.15,0-4.31,0-6.46c0-0.71,0-0.73-0.71-0.71c-1.26,0.04-2.54,0.04-3.79,0.19
			c-2.15,0.26-4.29,0.57-6.42,0.95c-1.39,0.25-2.75,0.65-4.13,1c-0.54,0.14-1.09,0.28-1.61,0.48c-1.94,0.75-3.91,1.41-5.76,2.37
			c-1.1,0.57-2.21,1.14-3.26,1.8c-1.32,0.83-2.59,1.75-3.87,2.65c-0.12,0.09-0.23,0.29-0.23,0.44c0.01,2.14,0.01,4.29,0.08,6.43
			c0.05,1.49,0.18,2.98,0.33,4.46c0.13,1.34,0.32,2.68,0.52,4.01c0.19,1.29,0.43,2.57,0.66,3.85c0.04,0.21,0.09,0.42,0.15,0.67
			c-0.12-0.01-0.19,0-0.23-0.03c-0.78-0.57-1.56-1.14-2.35-1.7c-0.73-0.53-1.48-1.04-2.22-1.56c-0.16-0.11-0.25-0.04-0.3,0.12
			c-0.33,1.01-0.66,2.03-0.99,3.04c-0.37,1.14-0.73,2.28-1.1,3.42c-0.02,0.06-0.07,0.11-0.15,0.23c-0.15-0.6-0.29-1.12-0.39-1.65
			c-0.22-1.08-0.45-2.16-0.64-3.25c-0.21-1.27-0.41-2.55-0.57-3.84c-0.16-1.33-0.29-2.66-0.4-4c-0.1-1.21-0.21-2.43-0.23-3.64
			c-0.06-2.7-0.08-5.41-0.09-8.11c0-0.73,0.06-1.46,0.1-2.2c0.01-0.11,0.07-0.24,0.14-0.32c0.97-1.1,2.11-2.02,3.24-2.95
			c1.1-0.9,2.3-1.64,3.47-2.44c1.41-0.96,2.94-1.7,4.43-2.52c1.48-0.81,3.05-1.4,4.6-2.05c0.4-0.17,0.84-0.27,1.23-0.45
			c1.35-0.61,2.79-0.97,4.21-1.38c0.94-0.27,1.9-0.47,2.86-0.67c0.89-0.19,1.79-0.37,2.69-0.52c1.21-0.21,2.43-0.41,3.65-0.56
			c2.26-0.29,4.53-0.39,6.81-0.39c0.19,0,0.26-0.08,0.27-0.25c0-0.13,0.01-0.27,0.01-0.4c0-2.18,0-4.36,0-6.55
			c0-0.13,0.01-0.26,0.02-0.39C127.49-233.43,127.52-233.44,127.54-233.46z"/>
		<linearGradient id="SVGID_13_" gradientUnits="userSpaceOnUse" x1="146.5518" y1="-176.4553" x2="173.6055" y2="-236.3087">
			<stop  offset="0.0306" style="stop-color:#E06016"/>
			<stop  offset="0.4304" style="stop-color:#EFBE2C"/>
		</linearGradient>
		<path class="st13" d="M170.44-182.21c-1.9-0.64-3.8-1.27-5.71-1.89c-0.27-0.09-0.33-0.22-0.27-0.48c0.2-0.9,0.4-1.8,0.57-2.7
			c0.26-1.44,0.54-2.88,0.73-4.33c0.28-2.18,0.53-4.36,0.72-6.55c0.14-1.57,0.21-3.16,0.21-4.74c0.01-2.68-0.05-5.35-0.09-8.03
			c0-0.1-0.05-0.23-0.12-0.3c-0.28-0.31-0.55-0.63-0.86-0.91c-0.89-0.79-1.76-1.6-2.7-2.31c-1.21-0.91-2.46-1.8-3.75-2.59
			c-1.44-0.88-2.94-1.66-4.44-2.45c-0.58-0.31-1.19-0.55-1.79-0.8c-1.55-0.63-3.09-1.25-4.65-1.86c-0.25-0.1-0.52-0.15-0.78-0.22
			c-0.01,0.03-0.02,0.06-0.03,0.09c0.47,0.38,0.95,0.77,1.46,1.18c-0.14,0.1-0.27,0.21-0.41,0.31l-0.06-0.03l-6.79,5.19l0.42,0.13
			c0.01,0,0.03,0.01,0.04,0.01c0.09,0.03,0.19,0.06,0.28,0.09l0.16,0.05l0,0c1.21,0.37,2.43,0.73,3.64,1.12
			c0.67,0.21,1.33,0.46,1.98,0.72c1.36,0.55,2.74,1.07,4.01,1.83c0.38,0.23,0.8,0.39,1.18,0.62c1,0.61,2.01,1.22,2.99,1.86
			c0.74,0.48,1.44,1.02,2.17,1.52c0.16,0.11,0.22,0.24,0.22,0.43c-0.01,0.9,0.02,1.79,0,2.69c-0.04,1.75-0.07,3.5-0.18,5.25
			c-0.09,1.52-0.26,3.03-0.44,4.54c-0.15,1.34-0.33,2.68-0.56,4.01c-0.21,1.24-0.5,2.46-0.74,3.69c-0.05,0.27-0.17,0.26-0.37,0.18
			c-0.55-0.21-1.1-0.42-1.65-0.61c-1.25-0.42-2.51-0.83-3.76-1.25c-0.41-0.13-0.82-0.26-1.29-0.4c0.02,0.15,0.03,0.25,0.06,0.33
			c0.27,0.85,0.55,1.7,0.83,2.55c0.67,2.05,1.34,4.1,2.01,6.15c0.37,1.15,0.74,2.29,1.11,3.44c0.23,0.71,0.47,1.43,0.7,2.14
			c0.4,1.24,0.81,2.47,1.21,3.71c0.08,0.23,0.18,0.28,0.39,0.12c0.67-0.5,1.35-0.98,2.02-1.47c1.22-0.88,2.43-1.75,3.65-2.63
			c1.09-0.78,2.18-1.55,3.26-2.33c1.2-0.86,2.4-1.73,3.6-2.59c0.88-0.63,1.78-1.24,2.67-1.86c0.07-0.05,0.12-0.12,0.2-0.22
			C171.13-181.94,170.79-182.09,170.44-182.21z"/>
		<linearGradient id="SVGID_14_" gradientUnits="userSpaceOnUse" x1="91.1129" y1="-163.9335" x2="158.6468" y2="-163.9335">
			<stop  offset="0.0306" style="stop-color:#E06016"/>
			<stop  offset="0.4304" style="stop-color:#EFBE2C"/>
		</linearGradient>
		<path class="st14" d="M158.56-168.48c-1.46,1.04-2.92,2.08-4.4,3.14c-0.05-0.11-0.07-0.14-0.08-0.17
			c-0.25-0.75-0.49-1.49-0.74-2.24c0,0,0,0,0,0l-1.5-4.86l-0.18,0.34l0,0c-0.03,0.06-0.06,0.11-0.09,0.16
			c-0.65,1.17-1.27,2.36-1.95,3.51c-0.53,0.89-1.11,1.74-1.71,2.59c-0.6,0.85-1.23,1.69-1.88,2.51c-0.65,0.81-1.33,1.62-2.04,2.37
			c-0.93,0.98-1.89,1.94-2.87,2.86c-0.79,0.74-1.61,1.45-2.47,2.11c-1.21,0.92-2.43,1.84-3.7,2.65c-1.32,0.84-2.7,1.58-4.08,2.32
			c-0.6,0.32-1.25,0.57-1.88,0.83c-0.11,0.04-0.27,0.05-0.37,0c-0.76-0.35-1.51-0.7-2.25-1.07c-1.45-0.71-2.86-1.48-4.19-2.41
			c-1.24-0.87-2.51-1.68-3.65-2.68c-0.87-0.77-1.77-1.5-2.61-2.3c-0.9-0.86-1.76-1.76-2.6-2.68c-0.7-0.76-1.36-1.56-2.01-2.37
			c-0.65-0.83-1.27-1.68-1.88-2.54c-0.52-0.74-1.05-1.48-1.51-2.25c-0.65-1.1-1.25-2.24-1.87-3.36c-0.16-0.29-0.14-0.33,0.18-0.44
			c1.3-0.44,2.6-0.9,3.9-1.33c0.82-0.28,1.65-0.53,2.47-0.8c0.1-0.03,0.19-0.1,0.32-0.17c-0.11-0.1-0.18-0.16-0.25-0.22
			c-0.59-0.43-1.18-0.86-1.77-1.29c-1.17-0.84-2.35-1.68-3.52-2.52c-1.25-0.9-2.5-1.79-3.75-2.69c-1.09-0.79-2.19-1.57-3.28-2.36
			c-0.59-0.42-1.18-0.84-1.77-1.25c-0.44-0.3-0.87-0.6-1.37-0.94c-2.03,6.22-4.04,12.4-6.07,18.65c0.17-0.04,0.27-0.05,0.36-0.08
			c0.34-0.11,0.68-0.23,1.03-0.34c0.7-0.23,1.41-0.44,2.11-0.68c1.12-0.38,2.24-0.78,3.35-1.18c0.22-0.08,0.33-0.01,0.42,0.19
			c0.18,0.41,0.37,0.81,0.58,1.2c0.4,0.76,0.77,1.53,1.22,2.25c1.07,1.72,2.15,3.43,3.27,5.11c0.54,0.81,1.15,1.58,1.76,2.35
			c0.67,0.84,1.36,1.66,2.08,2.46c0.79,0.88,1.6,1.73,2.44,2.56c0.83,0.82,1.68,1.63,2.57,2.38c1.06,0.9,2.14,1.77,3.25,2.59
			c1.12,0.83,2.27,1.64,3.46,2.35c1.53,0.92,3.1,1.77,4.69,2.57c1.46,0.74,2.99,1.32,4.57,1.76c0.25,0.07,0.53,0.1,0.78,0.05
			c0.49-0.11,0.97-0.27,1.44-0.44c1.29-0.47,2.57-0.97,3.79-1.62c1.52-0.8,3.07-1.53,4.49-2.52c1.22-0.85,2.48-1.66,3.67-2.55
			c1.06-0.79,2.07-1.63,3.07-2.5c0.92-0.8,1.8-1.63,2.66-2.49c0.83-0.83,1.62-1.68,2.39-2.56c0.73-0.83,1.43-1.7,2.11-2.57
			c0.59-0.75,1.17-1.52,1.72-2.3c0.58-0.82,1.13-1.67,1.66-2.52c0.6-0.97,1.17-1.95,1.74-2.94c0.29-0.5,0.56-1.02,0.83-1.53
			C158.62-168.42,158.59-168.45,158.56-168.48z"/>
		<g>
			<path class="st15" d="M141.39-194.53c0.04,0.04,0.08,0.08,0.12,0.12c0.03,0.04,0.06,0.08,0.09,0.12c0,0-0.01,0-0.01,0
				c0.02,0.02,0.04,0.05,0.07,0.07c0,0-0.01,0.01-0.01,0.01c0,1.7-0.01,3.41-0.01,5.11c0,0.07,0.04,0.14,0.06,0.2
				c0,0.07-0.01,0.13-0.01,0.2c-0.01,0.01-0.02,0.02-0.02,0.02c0.01,0.01,0.02,0.03,0.03,0.04c0,0.02,0,0.04,0,0.06
				c-0.02,0.11-0.06,0.22-0.06,0.33c0,3.78,0,7.57,0,11.35c0,0.11,0.04,0.22,0.06,0.33c0,0.04,0,0.08,0,0.13
				c-0.01,0.01-0.02,0.02-0.02,0.02c0.01,0.02,0.02,0.03,0.03,0.05c-0.02,0.81,0.05,1.62-0.07,2.41c-0.18,1.2-0.96,1.99-2.08,2.41
				c-0.3,0.12-0.47,0.27-0.59,0.57c-0.51,1.25-1.47,1.93-2.81,2.09c-0.03,0-0.06-0.01-0.09-0.01c-3.55,0-7.11,0-10.66,0
				c-0.08,0-0.16,0.02-0.25,0.04c-1.99,0-3.97-0.01-5.96,0.01c-1.06,0.01-1.99-0.27-2.75-1.04c-0.61-0.63-0.93-1.39-0.93-2.27
				c0-3.3,0-6.6,0-9.9c0-0.17-0.01-0.34-0.01-0.51c0-0.09,0-0.17,0-0.26c0-0.33,0.01-0.66,0.01-0.99c0-3.68,0-7.36,0-11.04
				c0-1.58,0.88-2.78,2.39-3.28c0.12-0.04,0.24-0.17,0.28-0.28c0.4-1.09,1.13-1.83,2.25-2.16c0.2,0.02,0.4,0.05,0.6,0.05
				c2.45,0,4.89,0.01,7.34-0.01c0.4,0,0.79-0.11,1.19-0.17c0.02,0,0.04,0,0.07,0c0.16,0.06,0.33,0.16,0.49,0.16
				c1.52,0.01,3.04,0.01,4.56,0c0.12,0,0.24-0.05,0.36-0.07c0.11,0.03,0.23,0.07,0.35,0.11c0,0,0.01,0.01,0.01,0.01
				c0.04,0.04,0.08,0.08,0.12,0.13c0,0-0.01,0.01-0.01,0.01c0.02,0.02,0.05,0.04,0.07,0.07c0,0,0.01-0.01,0.01-0.01
				c0.06,0.44,0.16,0.54,0.51,0.51c0,0,0,0,0,0c-0.02,0.19,0.06,0.28,0.25,0.25c0,0,0.01,0,0.01,0c0,0.02,0,0.04,0,0.05
				c0.01-0.01,0.03-0.02,0.04-0.04c0.72,0.71,1.45,1.42,2.17,2.14c0.92,0.92,1.83,1.85,2.75,2.77c0,0.03,0,0.05-0.01,0.08
				c0,0.01-0.01,0.02-0.01,0.03c0.01-0.01,0.01-0.02,0.02-0.03C141.34-194.53,141.37-194.53,141.39-194.53z M140.87-187.56
				c0,0-0.01-0.01-0.01-0.01c0-0.15,0-0.3,0-0.44c0-0.24,0-0.48,0-0.72c0-1.47,0-2.93,0-4.4c0-0.04,0-0.08,0-0.12
				c0.03-0.01,0.05-0.02,0.08-0.03c-0.04-0.03-0.09-0.06-0.13-0.1c-0.19-0.27-0.5-0.26-0.83,0.02c-0.04,0.01-0.09,0.02-0.13,0.03
				c-0.07,0-0.13,0.01-0.2,0.01c-0.15,0.01-0.3,0.03-0.44,0.04c-0.09-0.04-0.19-0.12-0.26-0.1c-0.21,0.05-0.44-0.19-0.63,0.04
				c-0.04-0.01-0.08-0.02-0.12-0.03c-0.38-0.12-0.76-0.23-1.15-0.35c-0.71-0.31-1.34-0.72-1.78-1.37c0-0.04,0.01-0.08,0-0.12
				c-0.18-0.42-0.39-0.83-0.54-1.26c-0.09-0.24-0.11-0.51-0.14-0.78c-0.07-0.79-0.04-1.58,0.17-2.35c0.01-0.05-0.07-0.13-0.11-0.2
				c-0.03-0.01-0.07-0.03-0.1-0.04c-0.21,0-0.42,0-0.63,0c-0.12,0.01-0.23,0.02-0.35,0.02c-1.23,0-2.47,0-3.7,0
				c-0.25,0-0.51-0.02-0.76-0.03c-0.09-0.01-0.18-0.01-0.27-0.02l-0.01,0.01l-0.02-0.01c-0.02,0-0.04-0.01-0.06-0.01
				c-0.02,0.01-0.04,0.01-0.06,0.02c-0.3,0.01-0.6,0.01-0.89,0.02c-0.12,0.01-0.23,0.02-0.35,0.02c-1.8,0-3.59,0-5.39,0
				c-0.12,0-0.23-0.01-0.35-0.02c-0.35-0.21-0.7,0-1.05,0.03c-0.01,0-0.02,0.08-0.03,0.12c-0.71,0.25-1.2,0.75-1.52,1.42
				c-0.25-0.02-0.28,0.13-0.26,0.33c0.02,0.37,0.06,0.75,0.06,1.12c0.01,2.12,0,4.23,0,6.35c0,0.12,0.03,0.25,0.05,0.37
				c0.01,0.15,0.01,0.3,0.02,0.45c-0.02,0.09-0.06,0.18-0.06,0.27c0,5.13,0,10.25,0,15.35c0.01,0.02,0.05,0.04,0.06,0.08
				c0.14,0.58,0.46,1.13,1.07,1.24c0.49,0.27,1.01,0.4,1.58,0.39c5.54-0.01,11.09-0.01,16.63-0.01c0.19,0,0.38-0.01,0.57-0.04
				c0.82-0.15,1.39-0.64,1.78-1.37c0.1-0.27,0.26-0.53,0.27-0.8c0.05-0.77,0.03-1.54,0.04-2.31c0-0.13-0.02-0.26-0.03-0.4
				c0-0.48,0-0.96,0-1.44c0-2.96,0.01-5.91,0.01-8.87c0.01,0,0.02-0.01,0.02-0.01C140.89-187.54,140.88-187.55,140.87-187.56z
				 M116.5-171.66c0.38,1.21,1.27,1.84,2.58,1.84c1.12,0,2.25,0,3.37,0c0.62,0,1.24,0.01,1.87,0.02c0.04,0.03,0.08,0.08,0.12,0.08
				c0.8,0,1.59-0.02,2.39-0.02c3.21,0,6.43,0,9.66,0c-0.02-0.08-0.04-0.12-0.05-0.16c0.73-0.26,1.34-0.65,1.6-1.43
				c-0.12-0.05-0.25-0.13-0.37-0.13c-4.27-0.01-8.54-0.01-12.8,0c-0.1,0-0.2,0.08-0.3,0.12c-0.09,0-0.17,0-0.26,0
				c-0.04-0.04-0.08-0.11-0.12-0.11c-0.54-0.02-1.07-0.03-1.61-0.04c-0.52-0.01-1.03-0.03-1.55-0.02c-0.14,0-0.28,0.06-0.42,0.1
				c-1.14-0.29-1.95-0.96-2.38-2.06c-0.33-0.84-0.25-1.71-0.2-2.58c0.03-0.18,0.08-0.35,0.08-0.53c0-4.07,0-8.15,0-12.22
				c0-0.12-0.05-0.23-0.08-0.35c0-0.3-0.01-0.6-0.01-0.9c0.03-0.09,0.09-0.18,0.09-0.27c0.01-2.12,0.01-4.23,0-6.35
				c0-0.09-0.06-0.18-0.09-0.28c-0.02-0.06-0.04-0.12-0.05-0.18c-0.87,0.26-1.51,1.16-1.51,2.14c0,5.62,0,11.23-0.01,16.85
				c0,0.18-0.03,0.36-0.04,0.53c0.01,0.07,0.02,0.13,0.04,0.2c0.01,0.02,0.01,0.04,0,0.06c-0.04,0.09-0.11,0.17-0.11,0.26
				c-0.01,1.52-0.01,3.04,0,4.56C116.34-172.24,116.44-171.95,116.5-171.66z"/>
			<path class="st15" d="M129.56-200.71c-0.4,0.06-0.79,0.16-1.19,0.17c-2.45,0.02-4.89,0.01-7.34,0.01c-0.2,0-0.4-0.03-0.6-0.05
				c0.34-0.05,0.69-0.14,1.03-0.14c2.64-0.01,5.27-0.01,7.91-0.01C129.43-200.74,129.49-200.72,129.56-200.71z"/>
			<path class="st15" d="M135.39-200.5c-0.12-0.04-0.24-0.08-0.35-0.11c-0.12,0.03-0.24,0.07-0.36,0.07c-1.52,0.01-3.04,0.01-4.56,0
				c-0.16,0-0.33-0.11-0.49-0.16c0.1-0.01,0.21-0.03,0.31-0.03c1.66,0,3.33,0,4.99,0C135.13-200.74,135.3-200.71,135.39-200.5z"/>
			<path class="st15" d="M141.69-176.58c-0.02-0.11-0.06-0.22-0.06-0.33c0-3.78,0-7.57,0-11.35c0-0.11,0.04-0.22,0.06-0.33
				c0,0.73,0.01,1.47,0.01,2.2C141.7-183.12,141.7-179.85,141.69-176.58z"/>
			<path class="st15" d="M125.14-168.87c0.08-0.01,0.16-0.04,0.25-0.04c3.55,0,7.11,0,10.66,0c0.03,0,0.06,0.01,0.09,0.01
				c-0.11,0.02-0.23,0.05-0.34,0.05c-3.45,0-6.9,0-10.35,0C125.35-168.84,125.24-168.86,125.14-168.87z"/>
			<path class="st15" d="M141.7-188.91c-0.02-0.07-0.06-0.14-0.06-0.2c0-1.7,0-3.41,0.01-5.11c0.02,0.05,0.06,0.11,0.06,0.16
				C141.7-192.34,141.7-190.62,141.7-188.91z"/>
			<path class="st15" d="M136.1-199.8c-0.34,0.03-0.44-0.06-0.51-0.51C135.76-200.13,135.93-199.96,136.1-199.8z"/>
			<path class="st15" d="M136.35-199.54c-0.19,0.03-0.27-0.06-0.25-0.25C136.18-199.71,136.27-199.63,136.35-199.54z"/>
			<path class="st15" d="M135.52-200.37c-0.04-0.04-0.08-0.08-0.12-0.13C135.44-200.45,135.48-200.41,135.52-200.37z"/>
			<path class="st15" d="M141.59-194.29c-0.03-0.04-0.06-0.08-0.09-0.12C141.54-194.37,141.57-194.33,141.59-194.29z"/>
			<path class="st15" d="M141.7-188.65c-0.01-0.01-0.02-0.03-0.03-0.04c0,0,0.01-0.01,0.02-0.02
				C141.69-188.69,141.69-188.67,141.7-188.65z"/>
			<path class="st15" d="M141.65-194.22c-0.02-0.02-0.04-0.05-0.07-0.07C141.61-194.27,141.63-194.25,141.65-194.22z"/>
			<path class="st15" d="M141.31-194.53c0-0.03,0-0.05,0.01-0.08c0.02,0.02,0.05,0.05,0.07,0.07
				C141.37-194.53,141.34-194.53,141.31-194.53L141.31-194.53z"/>
			<path class="st15" d="M136.4-199.52c-0.01,0.01-0.03,0.02-0.04,0.04c0-0.02,0-0.04,0-0.05
				C136.38-199.55,136.39-199.54,136.4-199.52z"/>
			<path class="st15" d="M141.7-176.38c-0.01-0.01-0.02-0.03-0.03-0.05c0,0,0.01-0.01,0.02-0.02
				C141.69-176.43,141.69-176.4,141.7-176.38z"/>
			<path class="st15" d="M135.58-200.3c-0.02-0.02-0.05-0.04-0.07-0.07C135.54-200.34,135.56-200.32,135.58-200.3z"/>
			<path class="st15" d="M138.05-171.33c-4.36,0-8.73,0-13.09-0.01c-0.13,0-0.25-0.01-0.38-0.01c0.1-0.04,0.2-0.12,0.3-0.12
				c4.27-0.01,8.54-0.01,12.8,0C137.8-171.46,137.93-171.37,138.05-171.33z"/>
			<path class="st15" d="M118.04-176.06c-0.01-0.12-0.03-0.23-0.03-0.35c0-4.12,0-8.25,0-12.37c0-0.13,0.02-0.25,0.03-0.38
				c0.03,0.12,0.08,0.23,0.08,0.35c0,4.07,0,8.15,0,12.22C118.12-176.41,118.07-176.23,118.04-176.06z"/>
			<path class="st15" d="M118.95-189.61c0,0.1,0.01,0.19,0.01,0.29c0,4.5,0,8.99,0,13.49c0,0.26,0.01,0.53,0,0.79
				c-0.06,0.97,0.26,1.77,1.05,2.36c-0.6-0.11-0.93-0.65-1.07-1.24c-0.01-0.04-0.05-0.06-0.06-0.08c0-5.1,0-10.23,0-15.35
				C118.89-189.43,118.93-189.52,118.95-189.61z"/>
			<path class="st15" d="M140.79-177.21c-0.01-0.07-0.03-0.14-0.03-0.21c0-3.29,0-6.59,0-9.88c0-0.08,0.01-0.17,0.02-0.25
				c0.03-0.01,0.06-0.01,0.09-0.02c0,0,0.01,0.01,0.01,0.01c0,0.02,0,0.03,0,0.05c0,2.96-0.01,5.91-0.01,8.87c0,0.48,0,0.96,0,1.44
				C140.84-177.21,140.82-177.21,140.79-177.21z"/>
			<path class="st15" d="M118.03-190.06c-0.01-0.4-0.02-0.81-0.02-1.21c0-1.78,0-3.56,0-5.33c0-0.12,0.01-0.23,0.02-0.35
				c0.03,0.09,0.09,0.18,0.09,0.28c0,2.12,0,4.23,0,6.35C118.12-190.24,118.06-190.15,118.03-190.06z"/>
			<path class="st15" d="M124.32-169.79c0.19-0.01,0.38-0.02,0.57-0.02c3.47,0,6.95,0,10.42,0c0.38,0,0.76-0.05,1.14-0.08
				c0.01,0.04,0.02,0.08,0.05,0.16c-3.23,0-6.45,0-9.66,0c-0.8,0-1.59,0.02-2.39,0.02C124.4-169.72,124.36-169.77,124.32-169.79z"/>
			<path class="st15" d="M116.45-177.34c0,1.75,0.01,3.49,0.01,5.24c0,0.15,0.02,0.29,0.03,0.44c-0.05-0.29-0.15-0.58-0.16-0.87
				c-0.02-1.52-0.01-3.04,0-4.56C116.34-177.17,116.41-177.26,116.45-177.34z"/>
			<path class="st15" d="M140.78-188.2c0-1.64,0-3.28,0-4.92c0.03-0.01,0.06-0.01,0.09-0.02c0,1.47,0,2.93,0,4.4
				c0,0.24,0,0.48,0,0.72C140.83-188.08,140.81-188.14,140.78-188.2z"/>
			<path class="st15" d="M119.09-198.23c-0.04,0.45-0.12,0.9-0.12,1.36c-0.01,2.16-0.01,4.31-0.01,6.47c0,0.12-0.02,0.23-0.02,0.35
				c-0.02-0.12-0.05-0.25-0.05-0.37c0-2.12,0-4.23,0-6.35c0-0.37-0.03-0.75-0.06-1.12C118.81-198.1,118.84-198.25,119.09-198.23z"/>
			<path class="st15" d="M135.25-195.07c-0.63-0.79-0.81-1.74-0.81-2.71c0-0.66,0.12-1.32,0.18-1.99c0.04,0.07,0.13,0.15,0.11,0.2
				c-0.22,0.77-0.24,1.56-0.17,2.35c0.02,0.26,0.05,0.53,0.14,0.78c0.16,0.43,0.36,0.84,0.54,1.26
				C135.27-195.16,135.25-195.11,135.25-195.07z"/>
			<path class="st15" d="M124.32-171.34c-1.07,0-2.13,0.01-3.2,0c-0.17,0-0.33-0.05-0.5-0.08c0.14-0.03,0.28-0.1,0.42-0.1
				c0.52,0,1.03,0.01,1.55,0.02c0.54,0.01,1.07,0.02,1.61,0.04C124.24-171.46,124.28-171.38,124.32-171.34z"/>
			<path class="st15" d="M140.79-177.21c0.02,0,0.05,0,0.07,0c0.01,0.13,0.03,0.26,0.03,0.4c-0.01,0.77,0.01,1.54-0.04,2.31
				c-0.02,0.27-0.18,0.53-0.27,0.8c0.31-1.01,0.11-2.05,0.17-3.07C140.76-176.92,140.78-177.06,140.79-177.21z"/>
			<path class="st15" d="M140.86-193.13c-0.03,0.01-0.06,0.01-0.09,0.02c-0.02-0.1-0.04-0.21-0.07-0.33
				c-0.24,0.03-0.49,0.07-0.73,0.1c0.33-0.29,0.65-0.29,0.83-0.02c0.02,0.04,0.03,0.08,0.05,0.12
				C140.86-193.21,140.86-193.17,140.86-193.13z"/>
			<path class="st15" d="M138.18-193.35c-0.38-0.12-0.76-0.23-1.15-0.35C137.42-193.58,137.8-193.47,138.18-193.35z"/>
			<path class="st15" d="M121.68-199.8c-0.36,0.05-0.71,0.1-1.07,0.15c0.01-0.04,0.01-0.12,0.03-0.12
				C120.99-199.8,121.33-200.02,121.68-199.8z"/>
			<path class="st15" d="M128.67-199.82c-0.3,0.01-0.6,0.01-0.89,0.02C128.07-199.81,128.37-199.81,128.67-199.82z"/>
			<path class="st15" d="M139.2-193.26c-0.3-0.02-0.6-0.04-0.9-0.06c0.2-0.23,0.42,0.02,0.63-0.04
				C139.02-193.38,139.12-193.3,139.2-193.26z"/>
			<path class="st15" d="M140.78-188.2c0.03,0.06,0.06,0.12,0.08,0.18c0,0.15,0,0.3,0,0.44c-0.03,0.01-0.06,0.01-0.09,0.02
				C140.78-187.77,140.78-187.98,140.78-188.2z"/>
			<path class="st15" d="M134.53-199.81c-0.21,0-0.42,0-0.63,0C134.11-199.81,134.32-199.81,134.53-199.81z"/>
			<path class="st15" d="M116.41-177.61c0.01,0.07,0.02,0.13,0.04,0.2C116.44-177.47,116.43-177.54,116.41-177.61z"/>
			<path class="st15" d="M129.09-199.81c-0.09-0.01-0.18-0.01-0.27-0.02C128.91-199.82,129-199.81,129.09-199.81z"/>
			<path class="st15" d="M140.86-193.25c-0.02-0.04-0.04-0.08-0.05-0.12c0.04,0.03,0.09,0.06,0.13,0.1
				C140.92-193.27,140.89-193.26,140.86-193.25z"/>
			<path class="st15" d="M139.84-193.32c-0.07,0-0.13,0.01-0.2,0.01C139.71-193.31,139.78-193.31,139.84-193.32z"/>
			<path class="st15" d="M141.31-194.53c-0.01,0.01-0.01,0.02-0.02,0.03C141.3-194.51,141.31-194.52,141.31-194.53
				C141.31-194.53,141.31-194.53,141.31-194.53z"/>
			<path class="st15" d="M128.79-199.82l-0.03,0c0,0-0.03-0.01-0.03-0.01C128.75-199.83,128.77-199.83,128.79-199.82z"/>
			<path class="st15" d="M140.87-187.51c0-0.02,0-0.03,0-0.05c0.01,0.01,0.01,0.02,0.02,0.04
				C140.89-187.52,140.88-187.51,140.87-187.51z"/>
		</g>
		<g>
			<rect x="122.74" y="-190.57" class="st15" width="14.15" height="0.78"/>
			<rect x="122.74" y="-188.48" class="st15" width="14.15" height="0.78"/>
			<rect x="122.74" y="-186.21" class="st15" width="14.15" height="0.78"/>
			<rect x="122.74" y="-184.12" class="st15" width="14.15" height="0.78"/>
			<rect x="122.74" y="-181.91" class="st15" width="14.15" height="0.78"/>
			<rect x="122.74" y="-179.82" class="st15" width="14.15" height="0.78"/>
			<rect x="122.74" y="-177.67" class="st15" width="14.15" height="0.78"/>
		</g>
		<path class="st16" d="M125.09-192.75c1.93-1.32,3.86-2.63,5.79-3.94c1.11,1.61,2.21,3.21,3.32,4.82
			c2.52-4.87,5.8-9.07,10.18-12.44c-0.01,0.16-0.02,0.28-0.02,0.39c-0.03,1.06,0.03,2.11,0.17,3.16c0.16,1.2,0.38,2.38,0.73,3.54
			c0.05,0.17,0.18,0.36,0.13,0.49c-0.05,0.13-0.27,0.2-0.41,0.3c-0.97,0.65-1.86,1.41-2.71,2.21c-2.53,2.4-4.8,5.02-6.71,7.94
			c-0.4,0.61-0.74,1.26-1.11,1.9c-0.03,0.04-0.05,0.09-0.09,0.14c-0.29-0.38-0.57-0.74-0.86-1.11c-1.5-1.88-3.11-3.66-4.97-5.2
			c-1.05-0.87-2.15-1.65-3.41-2.17C125.11-192.71,125.11-192.73,125.09-192.75z"/>
	</g>
	<g>
		<path class="st8" d="M128,254L128,254C58.41,254,2,197.59,2,128v0C2,58.41,58.41,2,128,2h0c69.59,0,126,56.41,126,126v0
			C254,197.59,197.59,254,128,254z"/>
		<g>
			<linearGradient id="SVGID_15_" gradientUnits="userSpaceOnUse" x1="194.1244" y1="223.3723" x2="41.5463" y2="114.3419">
				<stop  offset="0.0306" style="stop-color:#E06016"/>
				<stop  offset="0.4304" style="stop-color:#EFBE2C"/>
			</linearGradient>
			<path class="st17" d="M190.36,168.68c-2.96,2.11-8.06,4.22-11.05,6.35c-0.11-0.21-0.15-0.28-0.17-0.35
				c-0.59-1.77-1.17-3.54-1.76-5.3c-0.1-0.29-0.16-0.76-0.34-0.81c-0.57-0.17-0.39-0.56-0.43-0.91c-0.04-0.36-0.07-0.73-0.18-1.07
				c-0.54-1.76-1.09-3.52-1.65-5.28c-0.06-0.2-0.19-0.38-0.34-0.67c-0.18,0.32-0.29,0.51-0.4,0.71c-1.31,2.37-2.57,4.78-3.95,7.1
				c-1.07,1.8-2.25,3.53-3.46,5.24c-1.22,1.73-2.49,3.42-3.81,5.07c-1.32,1.65-2.68,3.27-4.13,4.8c-1.88,1.99-3.82,3.92-5.81,5.78
				c-1.6,1.5-3.26,2.94-5,4.26c-2.44,1.87-4.91,3.72-7.5,5.37c-2.67,1.7-5.47,3.19-8.26,4.7c-1.21,0.66-2.52,1.14-3.8,1.67
				c-0.22,0.09-0.54,0.09-0.75-0.01c-1.53-0.7-3.05-1.42-4.56-2.16c-2.94-1.44-5.79-3-8.48-4.88c-2.5-1.76-5.09-3.39-7.38-5.43
				c-1.75-1.56-3.58-3.03-5.27-4.65c-1.82-1.74-3.56-3.56-5.26-5.42c-1.41-1.54-2.76-3.15-4.06-4.8c-1.32-1.67-2.57-3.41-3.81-5.15
				c-1.06-1.49-2.12-2.99-3.05-4.56c-1.32-2.23-2.53-4.53-3.79-6.8c-0.32-0.58-0.29-0.66,0.36-0.88c0.32-0.11,0.64-0.22,0.96-0.33
				c-0.15-0.19-0.3-0.39-0.45-0.58c-0.7-0.92-1.23-1.84-1.67-2.91c-0.41-0.97,0.28-2.14,1.08-2.65c0.78-0.5,1.91-0.38,2.64,0.18
				c0.1-0.14,0.23-0.27,0.37-0.39c0.25-0.49,0.68-0.89,1.19-1.1c0.64-0.27,1.4-0.23,2.01,0.08c0.54-0.09,1.12-0.02,1.53,0.29
				c0.24,0.18,0.47,0.37,0.7,0.57c0.16-0.42,0.44-0.8,0.77-1.07c0.01,0,0.01-0.01,0.02-0.01c-2.27-1.63-4.55-3.26-6.83-4.89
				c-2.53-1.81-5.05-3.63-7.58-5.44c-2.22-1.59-4.43-3.19-6.65-4.77c-1.19-0.85-2.38-1.69-3.58-2.53c-0.88-0.62-1.46-1.32-2.47-2.01
				c-4.1,12.59-8.17,25.09-12.29,37.75c0.35-0.08,0.24,0,0.43-0.07c0.69-0.23,1.38-0.47,2.08-0.69c1.43-0.46,2.86-0.89,4.28-1.38
				c2.27-0.78,4.53-1.58,6.79-2.39c0.44-0.16,0.67-0.03,0.86,0.38c0.37,0.82,0.75,1.64,1.17,2.44c0.8,1.53,1.57,3.09,2.48,4.56
				c2.16,3.48,4.35,6.94,6.61,10.35c1.09,1.65,2.33,3.2,3.56,4.75c1.36,1.7,2.75,3.37,4.21,4.98c1.6,1.77,3.24,3.51,4.93,5.18
				c1.68,1.66,3.41,3.29,5.21,4.82c2.14,1.82,4.32,3.58,6.58,5.24c2.27,1.67,4.59,3.31,7.01,4.76c3.09,1.85,6.27,3.59,9.49,5.21
				c2.96,1.49,6.06,2.67,9.26,3.56c0.5,0.14,1.07,0.21,1.57,0.1c0.23-0.05,0.45-0.1,0.68-0.16c0,0,0,0,0,0
				c8.87-0.81,23.97-11.09,27.88-13.85c0.21-0.13,0.4-0.27,0.59-0.41c0.1-0.07,0.2-0.15,0.29-0.22c0.05-0.03,0.07-0.05,0.07-0.05
				c0,0,0,0,0,0c2.01-1.51,3.95-3.13,5.84-4.78c1.85-1.61,3.64-3.31,5.38-5.05c1.67-1.67,3.38-3.4,4.94-5.18
				c1.48-1.69,2.89-3.44,4.28-5.21c1.2-1.52,2.37-3.07,3.48-4.66c1.17-1.67,2.28-3.37,3.36-5.1c1.22-1.96,2.37-3.95,3.53-5.95
				c0.59-1.02,1.13-2.07,1.69-3.11C190.48,168.79,190.42,168.74,190.36,168.68z"/>
			<linearGradient id="SVGID_16_" gradientUnits="userSpaceOnUse" x1="162.632" y1="46.1402" x2="213.8821" y2="176.8802">
				<stop  offset="0.0306" style="stop-color:#E06016"/>
				<stop  offset="0.4304" style="stop-color:#EFBE2C"/>
			</linearGradient>
			<path class="st18" d="M210.72,138.24c-3.85-1.29-7.7-2.57-11.56-3.83c-0.54-0.18-0.66-0.44-0.54-0.98
				c0.41-1.82,0.82-3.64,1.15-5.47c0.53-2.92,1.1-5.83,1.49-8.77c0.57-4.41,1.08-8.83,1.46-13.26c0.28-3.18,0.42-6.39,0.43-9.58
				c0.02-5.42-0.1-10.83-0.18-16.25c0-0.21-0.1-0.46-0.24-0.61c-0.56-0.63-1.11-1.28-1.74-1.84c-1.8-1.59-3.56-3.24-5.47-4.68
				c-2.45-1.85-4.97-3.64-7.59-5.24c-2.91-1.78-5.96-3.35-8.98-4.96c-1.17-0.62-2.4-1.11-3.63-1.61c-1.27-0.52-2.55-1.03-3.82-1.55
				c-0.29,1.22-1.71,1.97-2.89,1.63c-0.68-0.2-1.36-0.37-2.03-0.57c-4.37,3.32-9.08,6.83-13.38,10.11c0.17,0.06,0.2,0.08,0.21,0.08
				c0.01,0,0.03,0.01,0.06,0.02c2.75,0.84,5.51,1.66,8.25,2.54c1.35,0.43,2.69,0.93,4.01,1.46c2.76,1.12,5.55,2.17,8.12,3.71
				c0.77,0.46,1.62,0.79,2.39,1.26c2.03,1.23,4.06,2.47,6.05,3.77c1.5,0.98,2.92,2.07,4.39,3.09c0.32,0.22,0.45,0.48,0.44,0.86
				c-0.01,1.81,0.04,3.63-0.01,5.44c-0.09,3.54-0.14,7.09-0.36,10.63c-0.19,3.07-0.53,6.14-0.88,9.2c-0.31,2.71-0.67,5.43-1.13,8.12
				c-0.42,2.5-1.02,4.97-1.5,7.47c-0.11,0.55-0.44-2.13-0.86-2.29c-1.11-0.43-2.22-0.85-3.34-1.23c-2.53-0.85-5.07-1.69-7.61-2.52
				c-0.67-0.22-1.54-0.56-2.35-0.83l0,0l-0.21-0.08l0,0l-0.65-0.24l0.01,0.03l-0.42-0.14l2.87,8.84c0.01,0.03,0.02,0.06,0.02,0.09
				c0.1,0.3,0.2,0.6,0.3,0.9l0,0.01l0.03,0.1c0,0,0,0,0,0c0.15,0.45,0.3,0.91,0.45,1.36l0.02,0.07c0,0,0,0,0,0
				c1.09,3.34,2.19,6.67,3.28,10.01c0.76,2.32,1.5,4.64,2.25,6.96c0.47,1.44,0.94,2.89,1.41,4.33c0.82,2.5,1.64,5.62,2.45,8.13
				c0.15,0.47,0.36,0.57,0.79,0.25c1.35-1.01,3.08-2.19,4.45-3.18c2.46-1.77,4.57-3.95,7.03-5.72c2.2-1.58,4.41-3.14,6.6-4.72
				c2.43-1.75,4.85-3.51,7.29-5.24c1.79-1.27,3.6-2.51,5.4-3.76c0.14-0.1,0.23-0.25,0.41-0.44
				C212.11,138.78,211.43,138.48,210.72,138.24z"/>
			<linearGradient id="SVGID_17_" gradientUnits="userSpaceOnUse" x1="178.039" y1="71.5165" x2="-41.7238" y2="105.0629">
				<stop  offset="0.0306" style="stop-color:#E06016"/>
				<stop  offset="0.4304" style="stop-color:#EFBE2C"/>
			</linearGradient>
			<path class="st19" d="M129.64,35.24c10.32,7.87,20.63,15.75,31.03,23.68c-0.79,0.61-1.44,1.13-2.1,1.64
				c-2.43,1.85-4.85,3.71-7.29,5.55c-2.77,2.1-5.55,4.18-8.32,6.27c-2.3,1.74-4.59,3.48-6.87,5.23c-2,1.53-3.98,3.08-5.97,4.61
				c-0.16,0.12-2.91,2.55-3.18,2.69c-0.02-0.39-0.06-0.66-0.06-0.94c0-4.36,0-8.71,0-13.07c0-1.44,2.55-3.83,1.12-3.78
				c-2.56,0.09-5.13,0.08-7.67,0.38c-4.34,0.52-8.68,1.15-12.99,1.92c-2.81,0.5-5.57,1.32-8.35,2.03c-1.1,0.28-2.2,0.57-3.26,0.98
				c-3.92,1.51-7.92,2.85-11.66,4.79c-2.23,1.16-4.48,2.3-6.6,3.64c-2.68,1.69-5.24,3.55-7.83,5.37c-0.25,0.18-0.47,0.59-0.47,0.89
				c0.02,4.34,0.01,8.67,0.16,13.01c0.1,3.02,0.37,6.03,0.68,9.03c0.27,2.72,0.65,5.42,1.05,8.12c0.39,2.6,0.88,5.19,1.33,7.79
				c0.07,0.43,0.18,0.85,0.29,1.36c-0.24-0.03-0.39,0-0.47-0.06c-1.59-1.14-3.16-2.31-4.75-3.45c-1.48-1.06-2.99-2.1-4.48-3.15
				c-0.32-0.22-0.5-0.08-0.6,0.24c-0.67,2.05-1.33,4.1-2,6.15c-0.75,2.3-1.49,4.61-2.24,6.91c-0.04,0.12-0.14,0.22-0.31,0.47
				c-0.29-1.22-0.58-2.27-0.8-3.33c-0.45-2.19-0.92-4.37-1.29-6.57c-0.43-2.58-0.82-5.17-1.14-7.76c-0.33-2.69-0.59-5.39-0.82-8.1
				c-0.21-2.45-0.42-4.91-0.47-7.37c-0.12-5.47-0.16-10.94-0.19-16.41c-0.01-1.48,0.12-2.96,0.21-4.44
				c0.01-0.22,0.14-0.48,0.29-0.65c1.96-2.24,4.26-4.1,6.56-5.98c2.22-1.82,4.65-3.33,7.01-4.94c2.85-1.95,5.95-3.44,8.97-5.09
				c3-1.64,6.18-2.83,9.31-4.15c0.82-0.34,1.69-0.54,2.49-0.91c2.74-1.24,5.65-1.96,8.53-2.79c1.9-0.55,3.85-0.94,5.78-1.36
				c1.8-0.39,3.62-0.75,5.43-1.05c2.45-0.42,4.91-0.83,7.38-1.14c4.57-0.58,9.17-0.79,13.77-0.8c0.38,0,0.53-0.16,0.54-0.5
				c0.01-0.27,0.01-0.54,0.01-0.81c0-4.42,0-8.83,0-13.25c0-0.26,0.03-0.52,0.04-0.79C129.52,35.3,129.58,35.27,129.64,35.24z"/>
			<linearGradient id="SVGID_18_" gradientUnits="userSpaceOnUse" x1="50.5652" y1="82.0321" x2="158.1031" y2="82.0321">
				<stop  offset="0.0306" style="stop-color:#E06016"/>
				<stop  offset="0.4304" style="stop-color:#EFBE2C"/>
			</linearGradient>
			<path class="st20" d="M127.08,32.88c10.32,7.87,20.63,15.75,31.03,23.68c-0.79,0.61-1.44,1.13-2.1,1.64
				c-2.43,1.85-4.85,3.71-7.29,5.55c-2.77,2.1-5.55,4.18-8.32,6.27c-2.3,1.74-4.59,3.48-6.87,5.23c-2,1.53-3.98,3.08-5.97,4.61
				c-0.16,0.12-0.35,0.19-0.63,0.34c-0.02-0.39-0.06-0.66-0.06-0.94c0-4.36,0-8.71,0-13.07c0-1.44,0-1.48-1.43-1.43
				c-2.56,0.09-5.13,0.08-7.67,0.38c-4.34,0.52-8.68,1.15-12.99,1.92c-2.81,0.5-5.57,1.32-8.35,2.03c-1.1,0.28-2.2,0.57-3.26,0.98
				c-3.92,1.51-7.92,2.85-11.66,4.79c-2.23,1.16-4.48,2.3-6.6,3.64c-2.68,1.69-5.24,3.55-7.83,5.37c-0.25,0.18-0.47,0.59-0.47,0.89
				c0.02,4.34,0.01,8.67,0.16,13.01c0.1,3.02,0.37,6.03,0.68,9.03c0.27,2.72,0.65,5.42,1.05,8.12c0.39,2.6,0.88,5.19,1.33,7.79
				c0.07,0.43,0.18,0.85,0.29,1.36c-0.24-0.03-0.39,0-0.47-0.06c-1.59-1.14-3.16-2.31-4.75-3.45c-1.48-1.06-2.99-2.1-4.48-3.15
				c-0.32-0.22-0.5-0.08-0.6,0.24c-0.67,2.05-1.33,4.1-2,6.15c-0.75,2.3-1.49,4.61-2.24,6.91c-0.04,0.12-0.14,0.22-0.31,0.47
				c-0.29-1.22-0.58-2.27-0.8-3.33c-0.45-2.19-0.92-4.37-1.29-6.57c-0.43-2.58-0.82-5.17-1.14-7.76c-0.33-2.69-0.59-5.39-0.82-8.1
				c-0.21-2.45-0.42-4.91-0.47-7.37c-0.12-5.47-0.16-10.94-0.19-16.41c-0.01-1.48,0.12-2.96,0.21-4.44
				c0.01-0.22,0.14-0.48,0.29-0.65c1.96-2.24,4.26-4.1,6.56-5.98c2.22-1.82,4.65-3.33,7.01-4.94c2.85-1.95,5.95-3.44,8.97-5.09
				c3-1.64,6.18-2.83,9.31-4.15c0.82-0.34,1.69-0.54,2.49-0.91c2.74-1.24,5.65-1.96,8.53-2.79c1.9-0.55,3.85-0.94,5.78-1.36
				c1.8-0.39,3.62-0.75,5.43-1.05c2.45-0.42,4.91-0.83,7.38-1.14c4.57-0.58,9.17-0.79,13.77-0.8c0.38,0,0.53-0.16,0.54-0.5
				c0.01-0.27,0.01-0.54,0.01-0.81c0-4.42,0-8.83,0-13.25c0-0.26,0.03-0.52,0.04-0.79C126.96,32.95,127.02,32.92,127.08,32.88z"/>
			<linearGradient id="SVGID_19_" gradientUnits="userSpaceOnUse" x1="165.5437" y1="148.2445" x2="220.2927" y2="27.1185">
				<stop  offset="0.0306" style="stop-color:#E06016"/>
				<stop  offset="0.4304" style="stop-color:#EFBE2C"/>
			</linearGradient>
			<path class="st21" d="M213.9,136.6c-3.85-1.29-7.7-2.57-11.56-3.83c-0.54-0.18-0.66-0.44-0.54-0.98
				c0.41-1.82,0.82-3.64,1.15-5.47c0.53-2.92,1.1-5.83,1.49-8.77c0.57-4.41,1.08-8.83,1.46-13.26c0.28-3.18,0.42-6.39,0.43-9.58
				c0.02-5.42-0.1-10.83-0.18-16.25c0-0.21-0.1-0.46-0.24-0.61c-0.56-0.63-1.11-1.28-1.74-1.84c-1.8-1.59-3.56-3.24-5.47-4.68
				c-2.45-1.85-4.97-3.64-7.59-5.24c-2.91-1.78-5.96-3.35-8.98-4.96c-1.17-0.62-2.4-1.11-3.63-1.61c-3.13-1.28-6.26-2.53-9.4-3.77
				c-0.5-0.2-1.05-0.3-1.58-0.44c-0.02,0.06-0.04,0.12-0.06,0.18c0.96,0.78,1.92,1.56,2.94,2.39c-0.28,0.21-0.55,0.42-0.83,0.64
				l-0.12-0.05l-13.74,10.5l0.85,0.26c0.03,0.01,0.05,0.02,0.08,0.03c0.19,0.06,0.38,0.12,0.57,0.17l0.33,0.1l0,0
				c2.46,0.75,4.92,1.48,7.36,2.26c1.35,0.43,2.69,0.93,4.01,1.46c2.76,1.12,5.55,2.17,8.12,3.71c0.77,0.46,1.62,0.79,2.39,1.26
				c2.03,1.23,4.06,2.47,6.05,3.77c1.5,0.98,2.92,2.07,4.39,3.09c0.32,0.22,0.45,0.48,0.44,0.86c-0.01,1.81,0.04,3.63-0.01,5.44
				c-0.09,3.54-0.14,7.09-0.36,10.63c-0.19,3.07-0.53,6.14-0.88,9.2c-0.31,2.71-0.67,5.43-1.13,8.12c-0.42,2.5-1.02,4.97-1.5,7.47
				c-0.11,0.55-0.33,0.53-0.76,0.37c-1.11-0.43-2.22-0.85-3.34-1.23c-2.53-0.85-5.07-1.69-7.61-2.52c-0.83-0.27-1.67-0.52-2.61-0.82
				c0.05,0.31,0.06,0.5,0.11,0.67c0.55,1.72,1.11,3.44,1.67,5.16c1.36,4.15,2.72,8.29,4.07,12.44c0.76,2.32,1.5,4.64,2.25,6.96
				c0.47,1.44,0.94,2.89,1.41,4.33c0.82,2.5,1.64,5.01,2.45,7.51c0.15,0.47,0.36,0.57,0.79,0.25c1.35-1.01,2.73-1.99,4.09-2.97
				c2.46-1.77,4.93-3.55,7.39-5.31c2.2-1.58,4.41-3.14,6.6-4.72c2.43-1.75,4.85-3.51,7.29-5.24c1.79-1.27,3.6-2.51,5.4-3.76
				c0.14-0.1,0.23-0.25,0.41-0.44C215.28,137.14,214.6,136.84,213.9,136.6z"/>
			<linearGradient id="SVGID_20_" gradientUnits="userSpaceOnUse" x1="53.3515" y1="173.5852" x2="190.0206" y2="173.5852">
				<stop  offset="0.0306" style="stop-color:#E06016"/>
				<stop  offset="0.4304" style="stop-color:#EFBE2C"/>
			</linearGradient>
			<path class="st22" d="M189.85,164.38c-2.96,2.11-5.91,4.22-8.9,6.35c-0.11-0.21-0.15-0.28-0.17-0.35c-0.5-1.51-1-3.02-1.5-4.53
				c0,0,0,0,0,0l-3.04-9.83l-0.37,0.68l0,0c-0.07,0.12-0.13,0.23-0.19,0.33c-1.31,2.37-2.57,4.78-3.95,7.1
				c-1.07,1.8-2.25,3.53-3.46,5.24c-1.22,1.73-2.49,3.42-3.81,5.07c-1.32,1.65-2.68,3.27-4.13,4.8c-1.88,1.99-3.82,3.92-5.81,5.78
				c-1.6,1.5-3.26,2.94-5,4.26c-2.44,1.87-4.91,3.72-7.5,5.37c-2.67,1.7-5.47,3.19-8.26,4.7c-1.21,0.66-2.52,1.14-3.8,1.67
				c-0.22,0.09-0.54,0.09-0.75-0.01c-1.53-0.7-3.05-1.42-4.56-2.16c-2.94-1.44-5.79-3-8.48-4.88c-2.5-1.76-5.09-3.39-7.38-5.43
				c-1.75-1.56-3.58-3.03-5.27-4.65c-1.82-1.74-3.56-3.56-5.26-5.42c-1.41-1.54-2.76-3.15-4.06-4.8c-1.32-1.67-2.57-3.41-3.81-5.15
				c-1.06-1.49-2.12-2.99-3.05-4.56c-1.32-2.23-2.53-4.53-3.79-6.8c-0.32-0.58-0.29-0.66,0.36-0.88c2.63-0.9,5.25-1.81,7.89-2.7
				c1.66-0.56,3.33-1.08,5-1.62c0.2-0.07,0.38-0.2,0.65-0.34c-0.23-0.2-0.37-0.33-0.52-0.44c-1.19-0.87-2.38-1.75-3.58-2.61
				c-2.37-1.71-4.75-3.4-7.12-5.1c-2.53-1.81-5.05-3.63-7.58-5.44c-2.22-1.59-4.43-3.19-6.65-4.77c-1.19-0.85-2.38-1.69-3.58-2.53
				c-0.88-0.62-1.77-1.22-2.78-1.91c-4.1,12.59-8.17,25.09-12.29,37.75c0.35-0.08,0.55-0.11,0.74-0.17
				c0.69-0.23,1.38-0.47,2.08-0.69c1.43-0.46,2.86-0.89,4.28-1.38c2.27-0.78,4.53-1.58,6.79-2.39c0.44-0.16,0.67-0.03,0.86,0.38
				c0.37,0.82,0.75,1.64,1.17,2.44c0.8,1.53,1.57,3.09,2.48,4.56c2.16,3.48,4.35,6.94,6.61,10.35c1.09,1.65,2.33,3.2,3.56,4.75
				c1.36,1.7,2.75,3.37,4.21,4.98c1.6,1.77,3.24,3.51,4.93,5.18c1.68,1.66,3.41,3.29,5.21,4.82c2.14,1.82,4.32,3.58,6.58,5.24
				c2.27,1.67,4.59,3.31,7.01,4.76c3.09,1.85,6.27,3.59,9.49,5.21c2.96,1.49,6.06,2.67,9.26,3.56c0.5,0.14,1.07,0.21,1.57,0.1
				c0.99-0.22,1.97-0.54,2.92-0.89c2.61-0.96,5.2-1.96,7.67-3.28c3.07-1.63,6.22-3.1,9.08-5.1c2.47-1.72,5.01-3.36,7.43-5.16
				c2.14-1.59,4.2-3.3,6.21-5.06c1.85-1.61,3.64-3.31,5.38-5.05c1.67-1.67,3.28-3.4,4.84-5.18c1.48-1.69,2.89-3.44,4.28-5.21
				c1.2-1.52,2.37-3.07,3.48-4.66c1.17-1.67,2.28-3.37,3.36-5.1c1.22-1.96,2.37-3.95,3.53-5.95c0.59-1.02,1.13-2.07,1.69-3.11
				C189.96,164.5,189.91,164.44,189.85,164.38z"/>
			<g>
				<path class="st15" d="M155.1,111.66c0.08,0.08,0.16,0.16,0.24,0.24c0.06,0.08,0.12,0.17,0.17,0.25c0,0-0.02,0-0.02,0
					c0.04,0.05,0.09,0.09,0.14,0.14c0,0-0.02,0.02-0.02,0.02c-0.01,3.45-0.02,6.89-0.02,10.34c0,0.14,0.08,0.27,0.12,0.41
					c-0.01,0.13-0.02,0.26-0.03,0.4c-0.01,0.01-0.04,0.04-0.04,0.04c0.02,0.03,0.04,0.05,0.06,0.08c0,0.04,0,0.09,0,0.13
					c-0.04,0.22-0.12,0.45-0.12,0.67c-0.01,7.66-0.01,15.31,0,22.97c0,0.22,0.08,0.45,0.12,0.67c0,0.09-0.01,0.17-0.01,0.26
					c-0.02,0.01-0.05,0.03-0.04,0.04c0.01,0.03,0.04,0.06,0.05,0.09c-0.04,1.63,0.09,3.29-0.15,4.88c-0.37,2.43-1.95,4.02-4.21,4.88
					c-0.62,0.24-0.95,0.54-1.2,1.15c-1.04,2.53-2.98,3.91-5.69,4.22c-0.06-0.01-0.13-0.02-0.19-0.02c-7.19,0-14.38,0-21.57,0.01
					c-0.17,0-0.33,0.05-0.5,0.07c-4.02,0-8.04-0.01-12.07,0.01c-2.14,0.01-4.04-0.54-5.56-2.11c-1.24-1.28-1.88-2.81-1.88-4.59
					c0-6.68,0-13.35,0-20.03c0-0.34-0.01-0.69-0.02-1.03c0-0.17,0-0.35,0-0.52c0.01-0.67,0.02-1.33,0.02-2c0-7.45,0-14.9,0-22.35
					c0-3.2,1.78-5.62,4.83-6.64c0.23-0.08,0.49-0.34,0.58-0.57c0.81-2.21,2.28-3.7,4.56-4.36c0.41,0.03,0.81,0.1,1.22,0.1
					c4.95,0.01,9.9,0.02,14.85-0.01c0.8-0.01,1.61-0.22,2.41-0.34c0.05,0,0.09,0,0.14,0.01c0.33,0.12,0.66,0.33,1,0.33
					c3.08,0.03,6.16,0.02,9.23,0.01c0.24,0,0.48-0.1,0.73-0.15c0.22,0.07,0.46,0.15,0.71,0.23c0,0,0.02,0.01,0.02,0.01
					c0.08,0.09,0.16,0.17,0.24,0.26c0,0-0.02,0.01-0.02,0.01c0.05,0.04,0.09,0.09,0.14,0.13c0,0,0.01-0.01,0.01-0.01
					c0.13,0.89,0.33,1.09,1.03,1.02c0,0,0.01,0,0.01,0.01c-0.04,0.38,0.12,0.56,0.51,0.51c0,0,0.01,0,0.01,0.01
					c0,0.04,0,0.07,0,0.11c0.03-0.02,0.05-0.05,0.08-0.07c1.46,1.44,2.94,2.88,4.39,4.33c1.86,1.86,3.71,3.74,5.57,5.61
					c0,0.05-0.01,0.1-0.01,0.16c-0.01,0.02-0.02,0.04-0.03,0.06c0.01-0.02,0.02-0.04,0.03-0.05
					C155,111.67,155.05,111.66,155.1,111.66z M154.05,125.78c0,0-0.02-0.03-0.02-0.03c0-0.3,0-0.6,0-0.9c0-0.49,0.01-0.97,0.01-1.46
					c0-2.96,0-5.93-0.01-8.89c0-0.08,0-0.16,0-0.23c0.05-0.02,0.11-0.04,0.16-0.06c-0.09-0.07-0.18-0.13-0.27-0.2
					c-0.38-0.55-1.01-0.53-1.68,0.05c-0.09,0.02-0.18,0.04-0.27,0.06c-0.13,0.01-0.26,0.02-0.4,0.03c-0.3,0.03-0.6,0.06-0.9,0.09
					c-0.18-0.07-0.38-0.23-0.53-0.2c-0.43,0.11-0.89-0.39-1.28,0.07c-0.08-0.02-0.17-0.04-0.25-0.06c-0.77-0.23-1.55-0.47-2.32-0.7
					c-1.44-0.62-2.72-1.45-3.61-2.78c0-0.08,0.02-0.17-0.01-0.24c-0.37-0.85-0.78-1.68-1.1-2.54c-0.18-0.49-0.23-1.04-0.28-1.57
					c-0.14-1.6-0.09-3.19,0.35-4.75c0.03-0.11-0.15-0.27-0.23-0.4c-0.07-0.03-0.13-0.05-0.2-0.08c-0.42,0-0.85,0-1.27,0.01
					c-0.23,0.02-0.47,0.05-0.7,0.05c-2.5,0-4.99,0.01-7.49,0c-0.51,0-1.03-0.03-1.54-0.05c-0.19-0.01-0.37-0.03-0.56-0.04
					l-0.03,0.03l-0.03-0.02c-0.04-0.01-0.08-0.02-0.12-0.02c-0.04,0.01-0.09,0.02-0.13,0.03c-0.6,0.01-1.21,0.02-1.81,0.03
					c-0.23,0.02-0.47,0.05-0.7,0.05c-3.64,0-7.27,0-10.91,0c-0.23,0-0.47-0.03-0.7-0.05c-0.72-0.43-1.41,0-2.12,0.06
					c-0.02,0-0.04,0.15-0.05,0.23c-1.44,0.51-2.43,1.52-3.08,2.88c-0.5-0.04-0.56,0.27-0.53,0.66c0.05,0.76,0.12,1.52,0.12,2.27
					c0.01,4.28,0,8.57,0.01,12.85c0,0.25,0.06,0.5,0.1,0.75c0.01,0.31,0.02,0.61,0.03,0.92c-0.04,0.18-0.13,0.36-0.13,0.54
					c-0.01,10.37-0.01,20.74-0.01,31.07c0.03,0.03,0.11,0.09,0.13,0.16c0.28,1.18,0.94,2.29,2.16,2.51c1,0.54,2.05,0.8,3.21,0.8
					c11.22-0.02,22.44-0.01,33.65-0.02c0.39,0,0.78-0.01,1.16-0.08c1.66-0.31,2.82-1.3,3.6-2.77c0.19-0.54,0.52-1.07,0.55-1.62
					c0.09-1.55,0.07-3.12,0.08-4.68c0-0.27-0.03-0.53-0.05-0.8c0-0.97,0-1.94,0-2.91c0.01-5.98,0.01-11.97,0.02-17.95
					c0.01-0.01,0.04-0.02,0.04-0.03C154.08,125.82,154.06,125.8,154.05,125.78z M104.72,157.95c0.78,2.44,2.57,3.72,5.23,3.73
					c2.28,0,4.55-0.01,6.83,0c1.26,0,2.52,0.03,3.78,0.05c0.08,0.05,0.17,0.16,0.25,0.16c1.61-0.01,3.22-0.04,4.84-0.04
					c6.5-0.01,13.01,0,19.55,0c-0.05-0.16-0.07-0.24-0.1-0.32c1.48-0.52,2.71-1.32,3.25-2.9c-0.25-0.09-0.5-0.26-0.74-0.26
					c-8.64-0.01-17.27-0.01-25.91,0c-0.21,0-0.41,0.15-0.62,0.23c-0.17,0-0.34,0-0.52,0c-0.08-0.08-0.16-0.23-0.25-0.23
					c-1.09-0.04-2.17-0.05-3.26-0.08c-1.05-0.02-2.09-0.05-3.14-0.05c-0.28,0-0.56,0.13-0.84,0.2c-2.3-0.58-3.94-1.95-4.82-4.17
					c-0.67-1.69-0.5-3.47-0.4-5.23c0.05-0.36,0.16-0.71,0.16-1.07c0.01-8.25,0.01-16.49,0-24.74c0-0.23-0.1-0.47-0.16-0.7
					c-0.01-0.61-0.02-1.22-0.03-1.82c0.06-0.18,0.18-0.37,0.18-0.55c0.01-4.28,0.01-8.56,0-12.84c0-0.19-0.12-0.37-0.18-0.56
					c-0.04-0.12-0.07-0.24-0.11-0.36c-1.77,0.53-3.06,2.34-3.06,4.34c-0.01,11.37,0,22.73-0.01,34.1c0,0.36-0.06,0.72-0.08,1.08
					c0.02,0.14,0.05,0.27,0.07,0.41c0.02,0.04,0.02,0.08,0,0.12c-0.08,0.17-0.23,0.34-0.23,0.52c-0.01,3.08-0.03,6.15,0.01,9.23
					C104.41,156.78,104.61,157.36,104.72,157.95z"/>
				<path class="st15" d="M131.15,99.16c-0.8,0.12-1.61,0.33-2.41,0.34c-4.95,0.03-9.9,0.02-14.85,0.01c-0.41,0-0.81-0.06-1.22-0.1
					c0.7-0.1,1.4-0.29,2.09-0.29c5.34-0.03,10.67-0.02,16.01-0.02C130.9,99.1,131.02,99.14,131.15,99.16z"/>
				<path class="st15" d="M142.96,99.58c-0.25-0.08-0.49-0.16-0.71-0.23c-0.24,0.05-0.48,0.15-0.73,0.15
					c-3.08,0.01-6.16,0.02-9.23-0.01c-0.33,0-0.67-0.22-1-0.33c0.21-0.02,0.42-0.06,0.63-0.06c3.37,0,6.73,0,10.1-0.01
					C142.43,99.1,142.78,99.15,142.96,99.58z"/>
				<path class="st15" d="M155.72,148c-0.04-0.22-0.12-0.45-0.12-0.67c-0.01-7.66-0.01-15.31,0-22.97c0-0.22,0.08-0.45,0.12-0.67
					c0.01,1.48,0.02,2.97,0.02,4.45C155.73,134.76,155.72,141.38,155.72,148z"/>
				<path class="st15" d="M122.21,163.59c0.17-0.03,0.33-0.07,0.5-0.07c7.19-0.01,14.38-0.01,21.57-0.01c0.06,0,0.13,0.01,0.19,0.02
					c-0.23,0.04-0.46,0.11-0.69,0.11c-6.98,0.01-13.96,0.01-20.94,0C122.64,163.65,122.42,163.61,122.21,163.59z"/>
				<path class="st15" d="M155.72,123.05c-0.04-0.14-0.12-0.27-0.12-0.41c0-3.45,0.01-6.89,0.02-10.34
					c0.04,0.11,0.12,0.22,0.12,0.33C155.73,116.1,155.72,119.57,155.72,123.05z"/>
				<path class="st15" d="M144.39,101.01c-0.7,0.07-0.9-0.13-1.03-1.02C143.7,100.33,144.04,100.67,144.39,101.01z"/>
				<path class="st15" d="M144.9,101.52c-0.39,0.06-0.55-0.12-0.51-0.51C144.56,101.18,144.73,101.35,144.9,101.52z"/>
				<path class="st15" d="M143.22,99.85c-0.08-0.08-0.16-0.17-0.24-0.26C143.06,99.68,143.14,99.77,143.22,99.85z"/>
				<path class="st15" d="M155.51,112.15c-0.06-0.08-0.12-0.17-0.17-0.25C155.39,111.98,155.45,112.07,155.51,112.15z"/>
				<path class="st15" d="M155.72,123.57c-0.02-0.03-0.05-0.05-0.06-0.08c0,0,0.02-0.03,0.04-0.04
					C155.7,123.48,155.71,123.52,155.72,123.57z"/>
				<path class="st15" d="M155.63,112.28c-0.05-0.05-0.09-0.09-0.14-0.14C155.54,112.19,155.58,112.24,155.63,112.28z"/>
				<path class="st15" d="M154.94,111.67c0-0.05,0.01-0.1,0.01-0.16c0.05,0.05,0.1,0.1,0.15,0.15
					C155.05,111.66,155,111.67,154.94,111.67L154.94,111.67z"/>
				<path class="st15" d="M144.99,101.56c-0.03,0.02-0.05,0.05-0.08,0.07c0-0.04,0-0.07,0-0.11
					C144.95,101.51,144.98,101.53,144.99,101.56z"/>
				<path class="st15" d="M155.72,148.39c-0.02-0.03-0.04-0.06-0.05-0.09c0-0.01,0.03-0.03,0.04-0.04
					C155.71,148.3,155.71,148.35,155.72,148.39z"/>
				<path class="st15" d="M143.35,100c-0.05-0.04-0.09-0.09-0.14-0.13C143.25,99.91,143.3,99.95,143.35,100z"/>
				<path class="st15" d="M148.34,158.62c-8.83,0-17.67-0.01-26.5-0.01c-0.26,0-0.52-0.01-0.77-0.02c0.21-0.08,0.41-0.23,0.62-0.23
					c8.64-0.01,17.27-0.01,25.91,0C147.84,158.36,148.09,158.53,148.34,158.62z"/>
				<path class="st15" d="M107.84,149.05c-0.02-0.23-0.07-0.47-0.07-0.7c0-8.35,0-16.7,0-25.04c0-0.26,0.04-0.51,0.06-0.77
					c0.05,0.23,0.16,0.47,0.16,0.7c0.01,8.25,0.01,16.49,0,24.74C108,148.34,107.9,148.69,107.84,149.05z"/>
				<path class="st15" d="M109.69,121.62c0.01,0.19,0.02,0.39,0.02,0.58c0,9.1,0,18.2,0,27.3c0,0.54,0.03,1.07,0,1.61
					c-0.12,1.96,0.53,3.58,2.13,4.78c-1.22-0.22-1.88-1.32-2.16-2.51c-0.02-0.07-0.1-0.13-0.13-0.16c0-10.32,0-20.69,0.01-31.07
					C109.56,121.98,109.65,121.8,109.69,121.62z"/>
				<path class="st15" d="M153.89,146.72c-0.02-0.14-0.07-0.29-0.07-0.43c0-6.67,0-13.33,0-20c0-0.17,0.02-0.34,0.03-0.51
					c0.06-0.01,0.12-0.02,0.18-0.03c0,0,0.02,0.03,0.02,0.03c0,0.03,0,0.06,0,0.1c-0.01,5.98-0.01,11.97-0.02,17.95
					c0,0.97,0,1.94,0,2.91C153.98,146.72,153.93,146.72,153.89,146.72z"/>
				<path class="st15" d="M107.82,120.72c-0.01-0.82-0.04-1.63-0.04-2.45c0-3.6,0-7.2,0-10.79c0-0.24,0.03-0.47,0.04-0.71
					c0.06,0.19,0.18,0.37,0.18,0.56c0.01,4.28,0.01,8.56,0,12.84C108,120.35,107.88,120.53,107.82,120.72z"/>
				<path class="st15" d="M120.56,161.72c0.38-0.01,0.76-0.04,1.14-0.04c7.03,0,14.06,0,21.08-0.01c0.77,0,1.54-0.1,2.31-0.16
					c0.02,0.08,0.05,0.16,0.1,0.32c-6.54,0-13.04,0-19.55,0c-1.61,0-3.22,0.04-4.84,0.04C120.72,161.88,120.64,161.78,120.56,161.72
					z"/>
				<path class="st15" d="M104.63,146.45c0.01,3.54,0.01,7.07,0.03,10.61c0,0.3,0.04,0.6,0.07,0.9c-0.11-0.59-0.31-1.17-0.32-1.76
					c-0.03-3.08-0.02-6.15-0.01-9.23C104.4,146.79,104.55,146.62,104.63,146.45z"/>
				<path class="st15" d="M153.86,124.48c0-3.32,0-6.64-0.01-9.96c0.06-0.01,0.12-0.02,0.18-0.03c0,2.96,0.01,5.93,0.01,8.89
					c0,0.49,0,0.97-0.01,1.46C153.97,124.73,153.92,124.6,153.86,124.48z"/>
				<path class="st15" d="M109.97,104.17c-0.08,0.92-0.24,1.83-0.24,2.75c-0.03,4.36-0.01,8.73-0.02,13.09
					c0,0.23-0.03,0.47-0.05,0.7c-0.03-0.25-0.1-0.5-0.1-0.75c-0.01-4.28,0-8.57-0.01-12.85c0-0.76-0.07-1.52-0.12-2.27
					C109.41,104.44,109.47,104.13,109.97,104.17z"/>
				<path class="st15" d="M142.68,110.57c-1.28-1.61-1.63-3.52-1.63-5.48c0-1.34,0.24-2.68,0.37-4.02c0.08,0.14,0.26,0.3,0.23,0.4
					c-0.44,1.56-0.48,3.15-0.35,4.75c0.05,0.53,0.1,1.08,0.28,1.57c0.31,0.87,0.73,1.69,1.1,2.54
					C142.7,110.4,142.68,110.49,142.68,110.57z"/>
				<path class="st15" d="M120.55,158.59c-2.16,0-4.32,0.01-6.48,0c-0.34,0-0.67-0.1-1.01-0.15c0.28-0.07,0.56-0.2,0.84-0.2
					c1.05-0.01,2.09,0.03,3.14,0.05c1.09,0.02,2.17,0.04,3.26,0.08C120.39,158.36,120.47,158.51,120.55,158.59z"/>
				<path class="st15" d="M153.89,146.72c0.05,0,0.1,0.01,0.15,0.01c0.02,0.27,0.05,0.53,0.05,0.8c-0.01,1.56,0.01,3.12-0.08,4.68
					c-0.03,0.55-0.36,1.08-0.55,1.62c0.63-2.04,0.23-4.15,0.35-6.22C153.81,147.31,153.86,147.01,153.89,146.72z"/>
				<path class="st15" d="M154.03,114.49c-0.06,0.01-0.12,0.02-0.18,0.03c-0.04-0.21-0.08-0.42-0.13-0.68
					c-0.49,0.07-0.99,0.14-1.48,0.21c0.68-0.58,1.31-0.6,1.68-0.05c0.04,0.08,0.07,0.17,0.11,0.25
					C154.03,114.34,154.03,114.42,154.03,114.49z"/>
				<path class="st15" d="M148.61,114.05c-0.77-0.23-1.55-0.47-2.32-0.7C147.06,113.58,147.84,113.81,148.61,114.05z"/>
				<path class="st15" d="M115.22,100.99c-0.72,0.1-1.45,0.2-2.17,0.29c0.02-0.08,0.03-0.23,0.05-0.23
					C113.81,100.99,114.5,100.56,115.22,100.99z"/>
				<path class="st15" d="M129.35,100.96c-0.6,0.01-1.21,0.02-1.81,0.03C128.14,100.98,128.75,100.97,129.35,100.96z"/>
				<path class="st15" d="M150.67,114.23c-0.6-0.04-1.21-0.08-1.81-0.12c0.4-0.46,0.85,0.03,1.28-0.07
					C150.3,114,150.5,114.16,150.67,114.23z"/>
				<path class="st15" d="M153.86,124.48c0.06,0.12,0.11,0.24,0.17,0.36c0,0.3,0,0.6,0,0.9c-0.06,0.01-0.12,0.02-0.18,0.03
					C153.85,125.35,153.86,124.92,153.86,124.48z"/>
				<path class="st15" d="M141.22,100.99c-0.42,0-0.85,0-1.27,0.01C140.38,100.99,140.8,100.99,141.22,100.99z"/>
				<path class="st15" d="M104.56,145.91c0.02,0.14,0.05,0.27,0.07,0.41C104.6,146.19,104.58,146.05,104.56,145.91z"/>
				<path class="st15" d="M130.21,100.99c-0.19-0.01-0.37-0.03-0.56-0.04C129.84,100.96,130.03,100.97,130.21,100.99z"/>
				<path class="st15" d="M154.03,114.26c-0.04-0.08-0.07-0.17-0.11-0.25c0.09,0.07,0.18,0.13,0.27,0.2
					C154.14,114.22,154.08,114.24,154.03,114.26z"/>
				<path class="st15" d="M151.97,114.12c-0.13,0.01-0.26,0.02-0.4,0.03C151.7,114.14,151.84,114.13,151.97,114.12z"/>
				<path class="st15" d="M154.94,111.67c-0.01,0.02-0.02,0.04-0.03,0.05C154.92,111.71,154.93,111.69,154.94,111.67
					C154.94,111.67,154.94,111.67,154.94,111.67z"/>
				<path class="st15" d="M129.6,100.95l-0.06,0c0,0-0.06-0.02-0.06-0.02C129.52,100.94,129.56,100.95,129.6,100.95z"/>
				<path class="st15" d="M154.05,125.87c0-0.03,0-0.06,0-0.1c0.01,0.02,0.03,0.05,0.04,0.07
					C154.09,125.85,154.06,125.86,154.05,125.87z"/>
			</g>
			<g>
				<rect x="117.35" y="119.69" class="st15" width="28.63" height="1.57"/>
				<rect x="117.35" y="123.91" class="st15" width="28.63" height="1.57"/>
				<rect x="117.35" y="128.51" class="st15" width="28.63" height="1.57"/>
				<rect x="117.35" y="132.73" class="st15" width="28.63" height="1.57"/>
				<rect x="117.35" y="137.2" class="st15" width="28.63" height="1.57"/>
				<rect x="117.35" y="141.43" class="st15" width="28.63" height="1.57"/>
				<rect x="117.35" y="145.78" class="st15" width="28.63" height="1.57"/>
			</g>
			<path class="st16" d="M122.11,115.27c3.91-2.67,7.8-5.32,11.71-7.98c2.25,3.26,4.48,6.5,6.73,9.76
				c5.09-9.85,11.74-18.36,20.6-25.18c-0.02,0.33-0.03,0.56-0.04,0.79c-0.06,2.14,0.06,4.27,0.34,6.39
				c0.32,2.43,0.77,4.82,1.48,7.16c0.1,0.34,0.36,0.73,0.27,1c-0.09,0.27-0.55,0.41-0.84,0.6c-1.97,1.32-3.77,2.85-5.49,4.47
				c-5.13,4.85-9.71,10.16-13.57,16.08c-0.81,1.24-1.5,2.56-2.25,3.84c-0.05,0.09-0.11,0.18-0.17,0.29
				c-0.59-0.76-1.16-1.51-1.74-2.24c-3.03-3.81-6.29-7.4-10.05-10.51c-2.12-1.76-4.34-3.35-6.91-4.4
				C122.16,115.34,122.15,115.32,122.11,115.27z"/>
		</g>
	</g>
</g>
</svg>
